<svg width="1613" height="1301" viewBox="0 0 1613 1301" fill="none" xmlns="http://www.w3.org/2000/svg">
<path d="M1055.24 1268.92C1051.7 1267.07 1048.41 1262.96 1045.45 1257.78C1045.45 1257.78 1042.89 1242.46 1045.45 1226.35C1048 1210.25 1040.96 1197.1 1018.11 1192.13C995.875 1187.33 982.699 1198.01 987.846 1242.58C984.47 1261.11 983.77 1282.23 991.469 1300.06H1059.86C1059.86 1300.06 1070.64 1276.97 1055.24 1268.92Z" fill="#CFD8DC"/>
<path d="M1115.27 1028.66C1115.27 1028.66 1115.27 1073.16 1090.12 1118.76C1064.51 1165.22 1032.85 1228.94 1032.85 1228.94C1032.85 1228.94 1011.77 1249.48 998.345 1215.47C998.345 1215.47 1007.81 1097.07 1029.51 1053.76C1051.21 1010.42 1115.23 1028.66 1115.23 1028.66H1115.27Z" fill="#FF8B66"/>
<path d="M1443.25 883.844C1443.25 883.844 1483.97 1054.79 1509.91 1099.9C1509.91 1099.9 1503.94 1118.76 1475.9 1124.47C1475.9 1124.47 1387.26 994.481 1381.58 939.717C1375.89 884.954 1443.29 883.844 1443.29 883.844H1443.25Z" fill="#FF8B66"/>
<path d="M1462.93 924.065C1452.1 950.111 1368.4 951.508 1368.4 951.508L1362.02 942.1L1360.33 939.635L1347.24 920.367C1347.24 920.367 1208.53 784.628 1181.52 796.008H1181.48C1180.7 796.378 1179.91 796.789 1179.17 797.323C1160.6 810.552 1158.88 883.023 1136.93 1004.67C1134.83 1016.21 1130.18 1029.65 1126.64 1038.97C1126.23 1039.96 1125.86 1040.95 1125.48 1041.85C1123.47 1046.99 1122.07 1050.27 1122.07 1050.27C1037.42 1084.49 1009.46 1016.87 1009.46 1016.87C1009.46 1016.87 1010.45 1014.9 1011.93 1011.78C1012.26 1011.08 1012.63 1010.3 1013 1009.48C1017.45 999.699 1024.53 982.772 1024.45 973.857C1024.37 964.039 1024.28 954.589 1024.2 945.551C1024.2 944.729 1024.2 943.949 1024.16 943.168C1024.04 913.917 1024.08 888.528 1024.24 866.466V864.124C1024.32 854.511 1024.49 845.514 1024.65 837.133V834.75C1025.4 796.296 1026.63 770.619 1027.95 753.528C1027.99 752.748 1028.07 751.926 1028.11 751.187C1030.46 722.387 1032.93 719.594 1032.93 719.594L1015.97 601.973H1200.99C1200.99 601.973 1228.79 629.745 1264.85 666.432C1265.64 667.172 1266.38 667.911 1267.08 668.651C1280.17 681.92 1294.29 696.341 1308.45 710.966C1309.03 711.541 1309.61 712.117 1310.1 712.651C1315.66 718.402 1321.26 724.154 1326.78 729.865C1327.48 730.563 1328.09 731.261 1328.79 731.96C1347.36 751.146 1365.35 770.085 1380.75 786.641C1381.29 787.176 1381.82 787.751 1382.32 788.285C1403.4 811.045 1419.45 829.245 1424.97 837.749C1439.63 860.139 1451.08 889.308 1457.37 907.303C1457.7 908.165 1457.95 908.905 1458.24 909.685C1461.2 918.436 1462.85 924.024 1462.85 924.024L1462.93 924.065Z" fill="#8B383E"/>
<path d="M1060.68 737.26C1053.15 746.175 1042.15 751.639 1027.99 753.57C1028.03 752.789 1028.11 751.967 1028.15 751.228C1041.49 749.297 1051.83 744.12 1058.91 735.739C1071.63 720.785 1069.57 700.572 1069.53 700.408L1071.84 700.12C1071.92 700.983 1074.02 721.525 1060.68 737.26Z" fill="#662C33"/>
<path d="M1267.16 668.692C1266.42 668.733 1265.76 668.774 1265.02 668.774C1244.43 668.774 1222.98 646.343 1221.87 645.192L1223.52 643.59C1223.8 643.919 1245.17 666.268 1264.93 666.432C1265.72 667.172 1266.46 667.911 1267.16 668.651V668.692Z" fill="#662C33"/>
<path d="M1126.68 1039.02C1126.27 1040 1125.9 1040.99 1125.53 1041.89C1111.82 1046.9 1099.26 1048.96 1087.77 1048.96C1051.21 1048.96 1025.89 1027.84 1011.97 1011.82C1012.3 1011.12 1012.67 1010.34 1013.04 1009.52C1030.83 1030.31 1068.83 1060.99 1126.68 1038.97V1039.02Z" fill="#662C33"/>
<path d="M1176.37 753.693C1179.42 766.798 1181.4 781.054 1181.48 796.05C1180.7 796.419 1179.91 796.83 1179.17 797.364C1179.09 728.509 1139.11 674.772 1138.66 674.156L1140.47 672.8C1140.84 673.252 1164.52 705.174 1175.71 751.31C1180.37 748.27 1183.54 743.874 1184.85 738.204C1190.62 714.048 1164.43 674.526 1164.19 674.115L1166.08 672.841C1167.19 674.526 1193.05 713.555 1187.12 738.697C1185.55 745.271 1181.89 750.242 1176.33 753.652L1176.37 753.693Z" fill="#662C33"/>
<path d="M1382.4 788.367C1375.61 795.762 1369.18 802.048 1368.61 802.582L1367.37 803.814L1366.8 802.171C1357.82 778.753 1300.22 728.057 1299.64 727.564L1298.94 726.907L1308.54 711.048C1309.11 711.624 1309.69 712.199 1310.18 712.733L1302.15 726.044C1313.35 729.906 1321.3 730.604 1326.9 729.906C1327.6 730.604 1328.22 731.302 1328.92 732.001C1327.02 732.329 1325.05 732.494 1322.95 732.494C1317.8 732.494 1311.87 731.426 1305.24 729.454C1318.34 741.203 1358.97 778.795 1368.28 799.747C1371.9 796.173 1376.47 791.489 1380.88 786.683C1381.41 787.217 1381.95 787.792 1382.44 788.326L1382.4 788.367Z" fill="#662C33"/>
<path d="M1066.36 945.222L1065.46 945.387C1064.59 945.633 1054.22 947.77 1042.28 947.77C1036.31 947.77 1029.97 947.235 1024.28 945.633C1024.28 944.812 1024.28 944.031 1024.24 943.25C1039.31 947.564 1059.49 944.236 1064.06 943.374L1060.23 848.472C1058.09 853.689 1053.85 860.797 1045.86 864.699C1042.07 866.63 1037.83 867.534 1033.14 867.534C1030.34 867.534 1027.41 867.205 1024.32 866.548V864.206C1032.23 866.014 1039.11 865.521 1044.79 862.645C1054.46 857.839 1058.33 847.609 1059.49 843.542C1051.87 844.692 1036.43 840.789 1024.7 837.215V834.832C1037.38 838.653 1054.5 843.09 1060.68 840.953L1062.16 840.46L1066.36 945.222Z" fill="#662C33"/>
<path d="M1458.32 909.727C1445.02 922.832 1417.77 942.84 1375.85 942.84C1371.41 942.84 1366.8 942.593 1362.02 942.1L1360.33 939.635C1411.3 945.469 1443.25 921.6 1457.46 907.385C1457.79 908.206 1458.03 908.946 1458.32 909.727Z" fill="#662C33"/>
<path d="M1235.25 101.868C1235.25 101.868 1230.14 90.2 1208.69 90.2C1192.14 90.2 1185.8 99.3204 1185.8 99.3204C1175.88 128.202 1165.26 238.839 1161.43 242.742C1159.49 244.755 1036.68 327.25 1036.68 327.25C1103.33 328.482 1144.88 410.443 1144.88 410.443C1147.02 383.493 1222.28 276.759 1223.1 267.268C1224.63 249.315 1256.45 169.121 1235.21 101.868H1235.25Z" fill="#CE364C"/>
<path d="M1022.06 680.236C1022.06 680.236 1021.44 703.325 1028.94 704.845C1036.43 706.365 1097.36 724.36 1167.44 692.561C1237.51 660.763 1249.7 637.181 1229.16 619.721C1208.57 602.219 1022.06 680.277 1022.06 680.277V680.236Z" fill="#CE364C"/>
<path d="M993.981 343.231C993.981 343.231 930.205 335.713 893.644 351.489C893.644 351.489 883.433 396.639 933.705 497.704C983.935 598.768 972.283 662.406 1028.94 686.358C1079.17 707.598 1227.26 644.371 1231.92 623.418C1243.61 570.626 1153.07 478.025 1147.35 424.37C1141.62 370.716 1089.05 290.028 993.981 343.231Z" fill="#F24052"/>
<path d="M893.644 351.489C849.095 367.265 798.948 417.222 798.865 441.296C798.783 465.371 840.696 474.656 840.696 474.656L909.372 441.296C909.372 441.296 929.011 427.616 916.495 387.724C903.978 347.832 893.644 351.489 893.644 351.489Z" fill="#CE364C"/>
<path d="M1076.78 396.023C1063.48 396.023 1046.93 391.257 1036.68 383.945C1031.04 379.918 1027.66 375.399 1026.92 370.839C1024.41 355.022 1039.81 347.011 1040.46 346.682L1042.52 350.749C1041.99 351.037 1029.43 357.651 1031.41 370.141C1031.94 373.468 1034.66 376.96 1039.31 380.247C1050.8 388.423 1070.68 393.229 1083.61 390.929C1089.46 389.902 1093.25 387.806 1094.94 384.725C1096.99 380.945 1095.22 376.632 1095.22 376.591L1099.42 374.783C1099.55 375.029 1102.1 381.069 1098.97 386.82C1096.58 391.216 1091.68 394.133 1084.4 395.407C1082.05 395.818 1079.45 396.023 1076.74 396.023H1076.78Z" fill="#CFD8DC"/>
<path d="M1020.25 444.131C1010.37 444.131 994.022 440.023 991.716 423.877C990.564 415.661 991.305 408.8 991.963 402.761C992.952 393.846 993.693 386.82 988.505 378.398C979.9 364.471 968.207 363.567 967.713 363.526L968.001 358.966C968.578 358.966 982.494 359.993 992.375 376.015C998.386 385.793 997.481 394.297 996.492 403.295C995.834 409.375 995.134 415.62 996.245 423.261C998.716 440.68 1020.99 439.612 1021.94 439.571L1022.23 444.131C1021.61 444.131 1020.95 444.172 1020.29 444.172L1020.25 444.131Z" fill="#CFD8DC"/>
<path d="M1034.12 362.253C1034.12 362.253 1067.84 339.328 1059.86 314.555C1051.87 289.741 943.298 291.466 915.301 321.128C887.304 350.79 975.865 370.469 975.865 370.469C982.741 356.665 1026.55 355.145 1034.17 362.294L1034.12 362.253Z" fill="#CE364C"/>
<path d="M973.518 358.391C957.502 352.968 948.032 341.464 951.45 328.153C954.867 314.843 1023.67 314.514 1036.68 325.113C1049.69 335.713 1031.36 377.987 973.477 358.391H973.518Z" fill="#A02E44"/>
<path d="M965.901 321.005C965.901 321.005 980.065 345.121 973.518 358.391C973.518 358.391 1022.06 375.112 1022.06 347.997C1022.06 347.997 1012.92 327.661 1016.38 314.555L965.901 321.005Z" fill="#EF6E4B"/>
<path d="M949.721 299.929C949.721 299.929 925.882 261.804 928.065 225.405C929.176 207.205 938.563 200.056 938.563 200.056C938.563 200.056 930.988 189.539 939.099 173.475C939.099 173.475 950.339 186.458 989.782 182.349C1027.82 178.405 1031.61 205.438 1031.61 205.438C1058.79 209.464 1040.46 291.507 1021.48 299.888H949.721V299.929Z" fill="#FFB878"/>
<path d="M939.592 264.721C939.592 264.721 925.882 251.081 924.194 267.022C922.259 285.509 939.057 292.945 942.351 287.07C945.645 281.195 939.592 264.721 939.592 264.721Z" fill="#FF8B66"/>
<path d="M1035.61 265.707C1035.61 265.707 1049.32 252.067 1051 268.008C1052.94 286.495 1036.14 293.931 1032.85 288.056C1029.55 282.181 1035.61 265.707 1035.61 265.707Z" fill="#FF8B66"/>
<path d="M986.158 331.687C955.732 331.687 938.563 311.843 938.563 252.396C938.563 221.707 954.208 202.891 988.299 202.891C1022.39 202.891 1036.72 221.707 1036.72 252.396C1036.72 316.28 1017.61 331.687 986.158 331.687Z" fill="#FF8B66"/>
<path d="M1026.63 273.595C1027.17 276.635 1024.49 279.675 1020.66 280.333C1016.83 280.99 1013.29 279.059 1012.76 276.019C1012.22 272.979 1014.9 269.939 1018.73 269.281C1022.55 268.624 1026.1 270.555 1026.63 273.595Z" fill="#DB614D"/>
<path d="M964.049 275.279C963.843 278.361 960.549 280.661 956.679 280.415C952.809 280.168 949.844 277.457 950.05 274.376C950.256 271.294 953.55 268.994 957.42 269.24C961.29 269.487 964.255 272.198 964.049 275.279Z" fill="#DB614D"/>
<path d="M1013.21 241.715C1012.8 241.797 1012.39 241.715 1012.06 241.427C1007.2 237.729 999.951 239.044 999.827 239.044C999.004 239.167 998.222 238.674 998.057 237.812C997.892 236.99 998.428 236.209 999.251 236.045C999.58 235.963 1007.98 234.484 1013.87 239.003C1014.53 239.496 1014.65 240.482 1014.16 241.139C1013.91 241.468 1013.54 241.673 1013.17 241.715H1013.21Z" fill="#FFB878"/>
<path d="M954.99 241.92C954.62 241.879 954.249 241.673 954.002 241.386C953.467 240.728 953.549 239.784 954.208 239.249C959.972 234.525 968.412 235.798 968.742 235.84C969.565 235.963 970.142 236.743 970.018 237.565C969.895 238.387 969.071 238.962 968.289 238.839C968.248 238.839 960.837 237.77 956.143 241.591C955.814 241.879 955.402 241.961 954.99 241.92Z" fill="#FFB878"/>
<path d="M1010.08 258.846C1010.08 262.626 1008.39 265.666 1006.29 265.666C1004.19 265.666 1002.5 262.626 1002.5 258.846C1002.5 255.067 1004.19 252.026 1006.29 252.026C1008.39 252.026 1010.08 255.067 1010.08 258.846Z" fill="#1A4850"/>
<path d="M969.442 258.846C969.442 262.626 967.754 265.666 965.654 265.666C963.554 265.666 961.866 262.626 961.866 258.846C961.866 255.067 963.554 252.026 965.654 252.026C967.754 252.026 969.442 255.067 969.442 258.846Z" fill="#1A4850"/>
<path d="M947.868 209.505C947.868 209.505 980.271 221.337 1026.75 218.01C1026.75 218.01 1036.68 230.335 1035.48 273.842C1035.48 273.842 1062.7 195.496 983.235 195.496C903.772 195.496 939.592 272.116 939.592 272.116C939.592 272.116 933.087 224.213 947.868 209.505Z" fill="#FFB878"/>
<path d="M988.052 279.141L985.787 276.841L991.798 270.884C985.952 262.667 985.993 243.604 985.993 242.742H989.204C989.204 242.947 989.204 263.447 995.133 269.898L996.204 271.048L988.052 279.141Z" fill="#DB614D"/>
<path d="M967.878 289.042C967.878 289.042 997.81 290.316 1012.92 286.331C1012.92 286.331 1015.6 308.064 992.376 309.132C967.837 310.282 967.837 289.042 967.837 289.042H967.878Z" fill="#1A4850"/>
<path d="M1095.84 371.209C1101.56 370.141 1100.99 385.054 1095.84 380.74C1090.69 376.426 1090.12 372.277 1095.84 371.209Z" fill="#CFD8DC"/>
<path d="M1026.92 443.515C1026.05 449.267 1012.1 443.803 1017.9 440.393C1023.67 436.942 1027.78 437.804 1026.92 443.515Z" fill="#CFD8DC"/>
<path d="M965.572 474.656C965.572 474.656 956.514 497.868 957.008 510.973C957.543 524.079 961.825 522.395 961.825 522.395C961.825 522.395 954.949 525.106 953.632 532.665C952.314 540.225 971.459 545.771 972.777 545.771C974.094 545.771 987.599 540.636 987.599 540.636L990.44 497.745L978.5 490.268L965.572 474.656Z" fill="#EF6E4B"/>
<path d="M972.818 471.616C972.818 471.616 989.329 481.887 995.751 488.131C1002.13 494.417 998.51 542.854 995.751 545.155C992.993 547.455 971.954 552.139 967.919 549.51C963.884 546.88 969.483 532.624 969.483 532.624C969.483 532.624 980.065 530.324 978.541 534.35C977.018 538.376 978.541 541.745 978.541 541.745L982.864 540.019C982.864 540.019 980.724 529.173 982.864 521.203C985.005 513.233 967.96 504.811 965.902 490.185C963.843 475.56 972.818 471.575 972.818 471.575V471.616Z" fill="#FF8B66"/>
<path d="M801.583 448.034C796.313 425.233 818.958 417.181 850.496 421.084C887.056 425.603 962.155 435.134 978.5 474.656C978.5 474.656 983.852 490.268 970.019 497.745C931.44 518.697 811.505 490.843 801.583 448.034Z" fill="#CE364C"/>
<path d="M916 432.916C916 432.916 872.399 414.839 850.701 413.031C829.003 411.183 880.716 430.122 916 432.916Z" fill="#A02E44"/>
<path d="M1242.7 41.3931C1239.41 45.1317 1233.97 59.6751 1233.97 59.6751C1231.67 71.9179 1230.35 78.6556 1226.07 84.2429C1221.83 89.8713 1224.05 99.7312 1224.05 99.7312C1224.05 99.7312 1207.42 108.277 1193.42 97.7181C1193.42 97.7181 1194.9 87.8993 1193.42 85.1467C1190.54 79.6005 1181.31 76.6014 1178.14 65.3857C1174.97 54.1289 1165.55 41.5575 1165.55 41.5575C1165.55 41.5575 1168.26 35.7237 1173.16 39.2568C1178.14 42.8721 1181.31 51.8283 1183.99 52.7732C1184.53 52.9375 1185.1 53.1018 1185.64 53.1429C1185.64 53.1429 1185.68 53.1429 1185.76 53.184C1187.82 53.4716 1189.92 53.0197 1191.2 51.7872C1191.28 51.7461 1191.44 51.6639 1191.53 51.4996C1196.05 46.241 1197.08 30.8348 1196.92 23.9328C1196.63 14.3604 1197 1.13165 1202.85 3.35014C1208.69 5.56863 1203.34 10.9094 1207.87 32.0262L1210.05 32.3138C1210.46 33.8338 1214.5 19.4958 1215.45 6.02054C1216.15 -3.22317 1222.2 0.186734 1223.56 3.10364C1224.92 6.02054 1222.86 15.2232 1222.45 21.9608C1222.12 26.3978 1221.75 30.9991 1221.54 33.7106L1224.09 35.1074C1233.32 19.0439 1230.19 12.3884 1235.58 12.0598C1240.93 11.7311 1239 25.2885 1236.12 30.4239C1234.88 32.6424 1233.69 37.3259 1232.74 41.8861C1242.21 30.9991 1241.14 25.2885 1245.5 25.987C1249.99 26.7265 1245.96 37.5313 1242.66 41.2699L1242.7 41.3931Z" fill="#FF8B66"/>
<path d="M1201.82 66.5359C1198.61 57.7442 1187.2 53.718 1185.76 53.2661C1187.82 53.5537 1189.92 53.1018 1191.2 51.8693C1202.39 56.8814 1201.82 66.5359 1201.82 66.5359Z" fill="#EF6E4B"/>
<path d="M1003.29 1233.17C1003.29 1233.17 996.944 1220.27 1002.59 1214.77C1008.23 1209.22 1014.85 1219.49 1024.49 1217.23C1034.12 1214.93 1036.35 1208.11 1038.86 1217.44C1041.37 1226.77 1038.32 1256.02 1003.29 1233.22V1233.17Z" fill="#CFD8DC"/>
<path d="M1039.52 1232.6C1039.52 1232.6 1013.66 1241.76 1000.24 1232.6L1003.66 1243.77C1003.66 1243.77 1031.78 1246.73 1035.65 1239.67L1039.52 1232.6Z" fill="#ADBEC4"/>
<path d="M1039.19 1246.49C1039.19 1246.49 1015.51 1243.2 1004.07 1249.07V1254.62C1004.07 1254.62 1034.95 1247.43 1044.95 1254.62L1039.19 1246.49Z" fill="#ADBEC4"/>
<path d="M1002.92 1266.12C1002.92 1266.12 1007.53 1254.95 1021.94 1254.17C1036.35 1253.35 1046.06 1261.28 1046.06 1261.28C1046.06 1261.28 1023.21 1251.87 1002.92 1266.12Z" fill="#ADBEC4"/>
<path d="M1612.64 1110.91C1567.14 1171.47 1505.26 1183.14 1505.26 1183.14C1487.31 1168.8 1486.85 1151.83 1486.85 1151.83C1486.85 1151.83 1469.52 1136.42 1467.26 1129.03C1464.95 1121.63 1482.12 1099.37 1492.41 1101.67C1499.49 1103.23 1503.61 1108.86 1505.51 1112.18C1497.02 1093.08 1503.82 1086.43 1515.88 1088.07C1528.44 1089.75 1516.58 1092.71 1525.56 1102.82C1526.21 1103.56 1526.91 1104.13 1527.7 1104.71C1529.34 1105.86 1531.32 1106.64 1533.54 1107.05C1535.52 1107.42 1537.7 1107.5 1540.01 1107.38C1541.2 1107.34 1542.44 1107.21 1543.67 1107.01C1546.02 1106.64 1548.37 1106.06 1550.84 1105.28C1554.62 1104.09 1558.58 1102.41 1562.4 1100.31C1578.13 1091.72 1584.76 1088.81 1596.74 1091.89C1608.68 1094.89 1608.48 1103.93 1608.48 1103.93L1612.68 1110.99L1612.64 1110.91Z" fill="#CFD8DC"/>
<path d="M1612.64 1110.91C1567.14 1171.47 1505.26 1183.13 1505.26 1183.13C1536.84 1169.58 1565.86 1151.83 1585.71 1130.01C1605.51 1108.16 1612.64 1110.95 1612.64 1110.95V1110.91Z" fill="#ADBEC4"/>
<path d="M1527.66 1104.67C1529.3 1105.82 1531.28 1106.6 1533.5 1107.01C1521.48 1109.43 1520.61 1120.15 1520.61 1120.15L1515.51 1118.51C1516.62 1105.65 1526.79 1104.75 1527.66 1104.71V1104.67Z" fill="#ADBEC4"/>
<path d="M1535.77 1121.43L1530.41 1121.59C1528.4 1114.03 1530.99 1109.51 1533.5 1107.01C1535.48 1107.38 1537.66 1107.46 1539.97 1107.34C1533.63 1113.58 1535.77 1121.43 1535.77 1121.43Z" fill="#ADBEC4"/>
<path d="M1548.98 1118.51L1543.67 1119.21C1541.61 1113.83 1542.19 1109.8 1543.63 1106.97C1545.98 1106.6 1548.32 1106.02 1550.79 1105.24C1546.39 1111.77 1548.98 1118.51 1548.98 1118.51Z" fill="#ADBEC4"/>
<path d="M1040.01 556.001C1040.01 556.001 1051.75 619.228 1028.03 644.412C1004.31 669.596 1020 648.89 1027.08 616.434C1034.16 583.978 1028.77 549.756 1040.05 556.001H1040.01Z" fill="#CE364C"/>
<path d="M1149.53 527.818C1149.53 527.818 1186.95 540.102 1206.51 574.57C1206.51 574.57 1180.37 518.41 1149.53 527.818Z" fill="#CE364C"/>
<path d="M177.658 58.1963C182.64 58.2785 197.092 64.0301 197.092 64.0301C207.714 70.5623 213.602 74.0955 220.642 74.6706C227.683 75.2869 230.523 87.3243 230.523 87.3243C230.523 87.3243 258.191 93.3635 259.756 75.9442C259.756 75.9442 244.275 54.088 243.204 51.13C241.022 45.2551 245.016 36.4633 238.799 26.5623C232.541 16.6612 229.576 1.25506 229.576 1.25506C229.576 1.25506 223.442 -0.675851 222.742 5.36337C222.083 11.4848 226.612 19.8246 225.5 22.454C225.253 22.988 225.006 23.481 224.677 23.933C224.677 23.933 224.677 23.933 224.636 24.0562C223.442 25.7406 221.713 27.0142 219.942 27.1374C219.86 27.1374 219.695 27.2196 219.53 27.1785C212.614 27.0142 200.427 17.4418 195.445 12.6762C188.528 6.06179 178.441 -2.56568 176.176 3.26813C173.912 9.10194 181.446 8.73219 194.127 26.2336L192.851 28.0413C193.674 29.3559 180.334 22.7005 169.712 14.4017C162.383 8.69111 160.819 15.4698 162.095 18.4278C163.33 21.3858 171.565 26.0693 176.835 30.2598C180.334 33.0123 183.999 35.806 186.181 37.4904L185.522 40.3251C167.406 36.3811 164.565 29.5613 160.695 33.341C156.866 37.0796 168.23 44.7621 173.994 46.0768C176.464 46.6519 180.746 48.9115 184.781 51.2532C170.33 50.9246 166.789 46.3233 164.401 49.9797C161.93 53.8004 172.676 58.0731 177.658 58.1552V58.1963Z" fill="#FF8B66"/>
<path d="M223.771 44.8442C219.366 36.5865 224.06 25.4119 224.677 24.0562C223.483 25.7406 221.754 27.0141 219.983 27.1374C216.196 38.805 223.771 44.8442 223.771 44.8442Z" fill="#EF6E4B"/>
<path d="M992.293 58.1963C987.311 58.2785 972.859 64.0301 972.859 64.0301C962.237 70.5623 956.349 74.0955 949.309 74.6706C942.269 75.2869 939.428 87.3243 939.428 87.3243C939.428 87.3243 911.76 93.3635 910.195 75.9442C910.195 75.9442 925.676 54.088 926.747 51.13C928.929 45.2551 924.935 36.4633 931.152 26.5623C937.41 16.6612 940.375 1.25506 940.375 1.25506C940.375 1.25506 946.509 -0.675851 947.209 5.36337C947.868 11.4848 943.339 19.8246 944.451 22.454C944.698 22.988 944.945 23.481 945.274 23.933C945.274 23.933 945.274 23.933 945.315 24.0562C946.509 25.7406 948.238 27.0142 950.009 27.1374C950.091 27.1374 950.256 27.2196 950.421 27.1785C957.338 27.0142 969.525 17.4418 974.506 12.6762C981.423 6.06179 991.51 -2.56568 993.775 3.26813C996.039 9.10194 988.505 8.73219 975.824 26.2336L977.1 28.0413C976.277 29.3559 989.617 22.7005 1000.24 14.4017C1007.57 8.69111 1009.13 15.4698 1007.86 18.4278C1006.62 21.3858 998.386 26.0693 993.116 30.2598C989.617 33.0123 985.952 35.806 983.77 37.4904L984.429 40.3251C1002.54 36.3811 1005.39 29.5613 1009.26 33.341C1013.08 37.0796 1001.72 44.7621 995.957 46.0768C993.487 46.6519 989.205 48.9115 985.17 51.2532C999.621 50.9246 1003.16 46.3233 1005.55 49.9797C1008.02 53.8004 997.275 58.0731 992.293 58.1552V58.1963Z" fill="#FF8B66"/>
<path d="M946.18 44.8442C950.586 36.5865 945.892 25.4119 945.274 24.0562C946.468 25.7406 948.198 27.0141 949.968 27.1374C953.756 38.805 946.18 44.8442 946.18 44.8442Z" fill="#EF6E4B"/>
<path d="M748.965 895.635L695.77 567.011L589.257 578.884L482.745 567.011L429.55 895.635L404.023 1214.36C404.023 1214.36 412.134 1240.77 465.288 1222.53C465.288 1222.53 504.69 926.9 510.783 920.408C516.877 913.917 579.458 720.785 579.458 720.785H599.056C599.056 720.785 661.638 913.876 667.732 920.408C673.825 926.9 713.227 1222.53 713.227 1222.53C766.339 1240.77 774.491 1214.36 774.491 1214.36L748.965 895.635Z" fill="#0E3944"/>
<path d="M555.743 248.781C562.454 255.313 595.557 267.104 613.055 248.781L624.912 260.408C624.912 260.408 611.408 292.124 587.693 293.233C563.978 294.342 546.85 265.009 546.85 265.009L555.784 248.781H555.743Z" fill="#0C476B"/>
<path d="M649.451 245.207C689.059 228.198 817.063 182.966 817.063 182.966C817.063 182.966 903.113 75.4102 920.653 59.4288C920.653 59.4288 939.716 62.8387 945.274 86.5026C945.274 86.5026 889.856 204.863 859.759 238.757C829.662 272.65 677.119 345.943 677.119 345.943L649.492 245.207H649.451Z" fill="#0C476B"/>
<path d="M510.783 242.742C522.559 235.306 581.723 274.787 581.723 274.787C581.723 274.787 658.633 234.032 676.707 241.92C676.707 241.92 692.971 263.653 699.517 319.485C706.063 375.317 706.475 605.177 706.475 605.177C706.475 605.177 654.763 623.418 584.811 623.418C505.06 623.418 462.159 600.617 462.159 600.617C462.159 600.617 447.913 282.387 510.783 242.742Z" fill="#FFB878"/>
<path d="M558.831 236.785C558.831 236.785 567.354 263.53 558.831 273.842C558.831 273.842 567.683 292.37 583.576 293.192C601.938 294.137 608.32 273.842 608.32 273.842C608.32 273.842 598.603 248 608.32 238.921L558.831 236.785Z" fill="#EF6E4B"/>
<path d="M537.627 210.45C537.627 210.45 519.717 176.023 523.258 139.212C526.799 102.402 582.381 93.9797 619.807 112.056C619.807 112.056 608.691 101.21 613.055 98.2113C617.419 95.2122 624.912 114.48 624.912 114.48C624.912 114.48 636.729 110.865 638.54 114.48C640.352 118.096 626.436 120.068 626.436 120.068C626.436 120.068 650.604 133.42 628.042 204.617L537.668 210.45H537.627Z" fill="#8B383E"/>
<path d="M534.91 188.635C534.91 188.635 521.529 175.324 519.882 190.895C517.988 208.93 534.375 216.202 537.586 210.45C540.798 204.699 534.869 188.635 534.869 188.635H534.91Z" fill="#FF8B66"/>
<path d="M628.536 189.58C628.536 189.58 641.917 176.269 643.564 191.84C645.457 209.875 629.071 217.147 625.859 211.395C622.648 205.644 628.577 189.58 628.577 189.58H628.536Z" fill="#FF8B66"/>
<path d="M580.323 253.958C550.679 253.958 533.922 234.607 533.922 176.639C533.922 146.731 549.155 128.366 582.381 128.366C615.607 128.366 629.606 146.731 629.606 176.639C629.606 238.962 610.955 253.958 580.323 253.958Z" fill="#FF8B66"/>
<path d="M619.766 197.304C620.301 200.262 617.666 203.22 613.96 203.877C610.255 204.535 606.796 202.645 606.261 199.646C605.726 196.688 608.361 193.73 612.066 193.072C615.813 192.415 619.23 194.305 619.766 197.304Z" fill="#DB614D"/>
<path d="M558.749 198.947C558.543 201.946 555.331 204.206 551.543 203.959C547.756 203.713 544.874 201.084 545.079 198.043C545.285 195.044 548.497 192.785 552.285 193.031C556.072 193.278 558.954 195.907 558.749 198.947Z" fill="#DB614D"/>
<path d="M606.22 167.231C605.809 167.231 605.438 167.067 605.15 166.779C601.033 162.465 593.827 162.671 593.745 162.671C592.963 162.671 592.263 162.054 592.222 161.233C592.222 160.411 592.839 159.754 593.663 159.713C593.992 159.713 602.309 159.507 607.332 164.766C607.908 165.341 607.867 166.286 607.291 166.861C607.003 167.149 606.632 167.272 606.261 167.272L606.22 167.231Z" fill="#8B383E"/>
<path d="M550.349 167.231C549.979 167.231 549.608 167.108 549.32 166.82C548.744 166.245 548.703 165.341 549.279 164.725C554.302 159.466 562.619 159.672 562.948 159.672C563.772 159.672 564.389 160.37 564.389 161.192C564.389 162.013 563.648 162.63 562.866 162.63C562.825 162.63 555.537 162.465 551.461 166.738C551.173 167.026 550.761 167.19 550.391 167.19L550.349 167.231Z" fill="#8B383E"/>
<path d="M603.668 182.925C603.668 186.581 602.021 189.58 599.962 189.58C597.903 189.58 596.257 186.581 596.257 182.925C596.257 179.268 597.903 176.269 599.962 176.269C602.021 176.269 603.668 179.268 603.668 182.925Z" fill="#1A4850"/>
<path d="M564.019 182.925C564.019 186.581 562.372 189.58 560.313 189.58C558.255 189.58 556.608 186.581 556.608 182.925C556.608 179.268 558.255 176.269 560.313 176.269C562.372 176.269 564.019 179.268 564.019 182.925Z" fill="#1A4850"/>
<path d="M564.019 222.282C564.019 222.282 590.163 225.651 603.626 219.201C603.626 219.201 596.01 236.99 581.723 235.388C567.436 233.786 564.019 222.282 564.019 222.282Z" fill="#1A4850"/>
<path d="M626.518 196.153C626.518 196.153 625.612 163.944 613.014 139.212C613.014 139.212 590.863 149.442 586.005 147.018C581.146 144.594 590.657 139.212 590.657 139.212C590.657 139.212 554.137 151.25 551.914 148.826C549.732 146.402 564.019 139.212 564.019 139.212L541.25 147.018C541.25 147.018 534.251 175.982 537.133 196.153C537.133 196.153 527.334 179.309 526.14 167.683C524.946 156.056 530.051 122.902 564.348 120.478C598.644 118.054 617.872 125.819 626.395 141.554C634.876 157.248 633.847 176.598 626.518 196.153Z" fill="#8B383E"/>
<path d="M585.469 212.957C582.587 212.957 579.664 212.217 578.758 211.971L579.582 208.93C582.711 209.793 587.569 210.286 588.64 209.054C589.01 208.602 588.846 207.616 588.228 206.301C583.946 197.222 583.04 174.174 582.999 173.188L586.169 173.065C586.169 173.311 587.075 196.441 591.069 204.945C592.304 207.534 592.263 209.629 591.069 211.067C589.875 212.505 587.652 212.957 585.469 212.957Z" fill="#DB614D"/>
<path d="M618.325 257.244C618.325 257.244 672.014 423.549 677.119 558.877C677.119 558.877 696.511 564.218 718.333 534.555C740.154 504.893 727.185 270.062 685.354 230.951C685.354 230.951 666.373 226.637 618.325 257.244Z" fill="#105E99"/>
<path d="M627.053 286.331C627.053 286.331 636.647 264.064 632.406 248.781C628.165 233.498 613.055 248.781 613.055 248.781C613.055 248.781 619.148 273.801 627.095 286.331H627.053Z" fill="#0C476B"/>
<path d="M519.306 245.207C479.698 228.198 351.694 182.966 351.694 182.966C351.694 182.966 265.438 72.2467 247.898 56.3064C247.898 56.3064 226.2 68.5492 224.718 93.9386C224.718 93.9386 278.901 204.904 309.039 238.798C339.177 272.691 491.679 345.984 491.679 345.984L519.306 245.248V245.207Z" fill="#0C476B"/>
<path d="M550.432 257.244C550.432 257.244 496.743 423.549 491.638 558.877C491.638 558.877 472.246 564.218 450.424 534.555C428.603 504.893 441.572 270.062 483.403 230.951C483.403 230.951 502.384 226.637 550.432 257.244Z" fill="#105E99"/>
<path d="M541.703 286.331C541.703 286.331 532.11 264.064 536.351 248.781C540.592 233.498 555.702 248.781 555.702 248.781C555.702 248.781 549.609 273.801 541.662 286.331H541.703Z" fill="#0C476B"/>
<path d="M821.881 1300.06H715.286C707.834 1257.78 719.732 1215.43 719.732 1215.43L768.48 1207.09C772.927 1233.83 778.279 1244.35 785.649 1249.77H785.69C791.084 1253.67 797.548 1254.99 805.577 1257.74C814.758 1260.95 819.616 1266.74 822.046 1273.03C826.863 1285.51 821.922 1300.02 821.922 1300.02L821.881 1300.06Z" fill="#662C33"/>
<path d="M822.004 1273.07C795.736 1276.35 737.972 1281.94 741.513 1266.78C744.436 1254.09 768.81 1250.68 785.608 1249.81H785.649C791.043 1253.72 797.507 1255.03 805.535 1257.78C814.717 1260.99 819.575 1266.78 822.004 1273.07Z" fill="#8B383E"/>
<path d="M464.876 1300.06H358.281C358.281 1300.06 354.905 1290.12 356.469 1279.56C357.746 1270.97 362.316 1262.01 374.626 1257.74C383.849 1254.54 390.93 1253.35 396.736 1247.92C403.035 1242.01 407.77 1231.04 411.722 1207.05L460.47 1215.39C460.47 1215.39 472.328 1257.7 464.917 1300.02L464.876 1300.06Z" fill="#662C33"/>
<path d="M356.428 1279.6C357.705 1271.01 362.275 1262.06 374.585 1257.78C383.808 1254.58 390.889 1253.39 396.695 1247.96C410.199 1252.11 429.056 1259.71 434.903 1271.26C443.055 1287.08 380.72 1284.57 356.428 1279.56V1279.6Z" fill="#8B383E"/>
<path d="M1230.19 1292.46C1230.19 1296.94 1229.73 1300.06 1229.73 1300.06H1100.25C1100.25 1297.51 1100.29 1294.96 1100.41 1292.46C1101.89 1258.65 1112.56 1229.31 1112.56 1229.31L1144.92 1215.43C1147.72 1232.07 1154.88 1242.71 1163.9 1249.65C1166.29 1251.54 1168.76 1253.06 1171.31 1254.37C1172.5 1255.03 1173.7 1255.61 1174.93 1256.14C1177.65 1257.37 1180.41 1258.36 1183.21 1259.18C1194.65 1262.63 1206.18 1263.37 1214.29 1264.6C1228.09 1266.74 1230.19 1282.68 1230.19 1292.38V1292.46Z" fill="#164353"/>
<path d="M1230.19 1292.46C1230.19 1296.94 1229.73 1300.06 1229.73 1300.06H1100.25C1100.25 1297.51 1100.29 1294.96 1100.41 1292.46H1230.19Z" fill="#225866"/>
<path d="M1171.31 1254.41L1153.36 1260.17L1149.57 1253.59L1163.94 1249.69C1166.33 1251.58 1168.8 1253.1 1171.35 1254.41H1171.31Z" fill="#225866"/>
<path d="M1183.17 1259.26L1171.06 1267.27L1163.61 1264.36L1174.89 1256.18C1177.61 1257.41 1180.37 1258.4 1183.17 1259.22V1259.26Z" fill="#225866"/>
<path d="M735.378 1292.46C735.048 1296.85 733.895 1300.06 733.895 1300.06H647.64C646.528 1297.55 645.746 1295.05 645.21 1292.46C636.729 1251.25 694.041 1200.88 694.041 1200.88L712.239 1225.12C712.239 1225.12 710.139 1263.9 725.538 1271.96C734.76 1276.8 735.954 1285.92 735.378 1292.5V1292.46Z" fill="#164353"/>
<path d="M645.251 1292.46H735.377C735.048 1296.85 733.895 1300.06 733.895 1300.06H647.639C646.528 1297.55 645.745 1295.05 645.21 1292.46H645.251Z" fill="#225866"/>
<path d="M721.626 1268.83C721.626 1268.83 685.271 1260.58 668.72 1271.26V1265.26C668.72 1265.26 699.27 1250.43 721.626 1268.79V1268.83Z" fill="#225866"/>
<path d="M714.421 1259.63C714.421 1259.63 691.2 1249.03 668.72 1259.63L671.272 1253.59C671.272 1253.59 698.158 1243.45 714.421 1259.63Z" fill="#225866"/>
<path d="M1191.11 926.283C1191.15 960.916 1160.36 1243.16 1160.36 1243.16C1129.56 1246.2 1104.86 1240.04 1104.86 1240.04C1096.42 1096.98 1095.59 973.981 1095.59 973.981L947.95 863.549L947.58 863.262C947.58 863.262 947.044 865.768 946.015 870.246C938.686 902.619 907.766 1038.28 894.879 1069.33C880.222 1104.75 719.774 1253.59 719.774 1253.59C689.965 1249.48 664.685 1227.96 664.685 1227.96C722.285 1132.64 800.801 1037 800.801 1037C806.935 1002.66 811.3 926.242 813.935 869.137C813.976 868.274 814.017 867.37 814.058 866.507C815.787 827.848 816.652 798.638 816.652 798.638L789.602 743.258L961.537 680.236L1000.07 729.454C1000.07 729.454 1008.89 737.629 1022.8 750.653C1023.46 751.228 1024.08 751.844 1024.74 752.419C1076.33 800.98 1191.15 910.754 1191.15 926.242L1191.11 926.283Z" fill="#8BBDDB"/>
<path d="M813.893 869.178C813.934 868.315 813.976 867.411 814.017 866.548C850.207 846.952 844.155 815.646 844.031 815.318L846.255 814.866C846.337 815.194 852.842 848.8 813.852 869.178H813.893Z" fill="#6097B2"/>
<path d="M945.274 841.446C946.509 848.307 947.415 855.661 947.909 863.549L947.538 863.262C947.538 863.262 947.003 865.768 945.974 870.246C944.368 816.591 922.217 784.916 921.929 784.546L923.823 783.232C924.07 783.519 938.028 803.65 944.821 838.817C970.965 815.646 945.356 768.154 945.109 767.702L947.127 766.593C947.415 767.086 974.506 817.372 945.315 841.405L945.274 841.446Z" fill="#6097B2"/>
<path d="M1024.65 752.46C1024.65 752.46 1024.53 752.501 1024.49 752.542C1023.42 752.953 1022.18 753.118 1020.91 753.118C1008.23 753.118 986.981 735.411 985.993 734.548L987.517 732.823C994.434 738.656 1013.66 752.666 1022.76 750.653C1023.42 751.228 1024.04 751.844 1024.7 752.419L1024.65 752.46Z" fill="#6097B2"/>
<path d="M801.583 448.034C801.583 448.034 853.871 439.653 880.098 456.292C906.325 472.93 940.703 516.479 940.703 516.479C940.703 516.479 899.861 521.861 895.249 549.551C895.249 549.551 865.564 479.052 801.624 448.034H801.583Z" fill="#ADBEC4"/>
<path d="M722.944 475.231C700.834 487.145 663.861 531.967 662.173 559.534C660.526 586.402 680.495 611.134 693.958 632.128C735.913 697.696 780.132 755.624 798.906 832.531C799.03 833.024 894.879 870.985 1007.4 736.027C1007.4 736.027 943.833 650.656 921.847 577.98C912.912 548.4 903.813 516.972 886.645 490.925C867.747 462.208 835.344 445.323 801.624 448.034C773.091 450.335 744.765 463.481 722.944 475.231Z" fill="#CFD8DC"/>
<path d="M713.639 447.747C713.639 447.747 727.802 471.862 721.255 485.132C721.255 485.132 769.798 501.853 769.798 474.738C769.798 474.738 760.657 454.402 764.075 441.297L713.597 447.747H713.639Z" fill="#EF6E4B"/>
<path d="M821.551 612.942C821.551 612.942 794.542 620.583 787.749 630.156C780.914 639.687 774.862 661.091 774.862 661.091H821.551L830.321 644.987L840.614 623.5L821.551 612.983V612.942Z" fill="#EF6E4B"/>
<path d="M776.879 420.837C776.879 420.837 795.86 412.908 783.59 356.008C775.479 318.293 763.745 312.665 756.211 312.336C756.211 312.336 746.947 298.409 714.833 305.065C692.847 309.625 675.307 322.936 667.567 347.627C659.497 373.345 675.637 428.52 696.882 434.025L776.92 420.837H776.879Z" fill="#164353"/>
<path d="M781.367 382.383C781.367 382.383 793.307 365.786 797.836 382.137C803.065 401.076 786.802 411.758 782.355 406.17C777.908 400.583 781.367 382.383 781.367 382.383Z" fill="#FF8B66"/>
<path d="M681.4 399.885C681.4 399.885 664.725 388.012 665.755 404.938C666.908 424.576 685.764 429.423 688.152 422.727C690.582 416.03 681.4 399.885 681.4 399.885Z" fill="#FF8B66"/>
<path d="M744.353 460.236C776.097 455.018 790.59 431.395 780.338 369.36C775.068 337.356 755.47 320.43 719.938 326.264C684.406 332.097 672.672 354.2 677.942 386.204C688.976 452.882 711.58 465.659 744.353 460.236Z" fill="#FF8B66"/>
<path d="M692.105 406.581C692.105 409.868 695.399 412.538 699.475 412.579C703.593 412.579 706.927 409.991 706.969 406.704C706.969 403.418 703.716 400.747 699.599 400.706C695.482 400.706 692.147 403.295 692.105 406.581Z" fill="#DB614D"/>
<path d="M757.693 397.584C758.434 400.789 762.263 402.596 766.257 401.692C770.25 400.748 772.885 397.42 772.144 394.256C771.403 391.052 767.574 389.244 763.539 390.148C759.546 391.093 756.911 394.421 757.652 397.584H757.693Z" fill="#DB614D"/>
<path d="M701.04 372.03C700.71 372.03 700.422 371.948 700.134 371.743C699.393 371.25 699.228 370.264 699.722 369.524C704.169 363.033 713.062 361.801 713.432 361.718C714.379 361.595 715.121 362.211 715.244 363.115C715.368 363.978 714.75 364.8 713.885 364.923C713.803 364.923 706.021 366.032 702.398 371.332C702.069 371.784 701.575 372.03 701.081 372.03H701.04Z" fill="#1A4850"/>
<path d="M760.781 362.211C760.452 362.211 760.122 362.088 759.793 361.883C754.646 358.021 746.947 359.459 746.865 359.5C746 359.705 745.136 359.089 744.971 358.226C744.806 357.364 745.383 356.501 746.247 356.337C746.618 356.254 755.47 354.57 761.728 359.336C762.428 359.87 762.593 360.856 762.057 361.595C761.728 362.006 761.275 362.253 760.781 362.253V362.211Z" fill="#1A4850"/>
<path d="M706.845 388.381C707.504 392.325 709.81 395.201 711.992 394.831C714.174 394.462 715.409 391.011 714.791 387.067C714.133 383.123 711.827 380.247 709.645 380.617C707.463 380.986 706.228 384.437 706.845 388.381Z" fill="#1A4850"/>
<path d="M749.212 381.397C749.87 385.341 752.176 388.217 754.358 387.847C756.54 387.478 757.775 384.027 757.158 380.083C756.499 376.139 754.193 373.263 752.011 373.633C749.829 374.002 748.594 377.453 749.212 381.397Z" fill="#1A4850"/>
<path d="M761.11 417.099C761.11 417.099 733.566 424.452 718.332 421.535C718.332 421.535 728.872 434.805 743.941 430.985C759.01 427.164 761.11 417.099 761.11 417.099Z" fill="#1A4850"/>
<path d="M762.386 340.561C762.386 340.561 726.567 366.443 681.607 368.415L682.883 408.348C682.883 408.348 640.97 331.317 723.849 317.636C806.729 303.997 782.602 390.066 782.602 390.066C782.602 390.066 780.049 352.968 762.386 340.561Z" fill="#0E3944"/>
<path d="M733.113 406.376L732.866 402.925C732.866 402.925 737.683 402.555 738.918 399.597C739.413 398.365 737.395 394.503 735.584 391.093C733.072 386.327 729.984 380.411 728.667 373.879L732.084 373.181C733.319 379.261 736.283 384.93 738.671 389.491C741.348 394.544 743.242 398.241 742.13 400.953C740.071 405.883 733.36 406.376 733.072 406.376H733.113Z" fill="#DB614D"/>
<path d="M747.853 589.401C747.853 589.401 768.522 621.364 803.765 640.18C803.765 640.18 847.819 602.014 904.966 605.465C904.966 605.465 857.618 690.712 816.94 700.161C795.572 705.132 718.333 654.066 718.333 654.066C718.333 654.066 733.772 599.795 747.853 589.442V589.401Z" fill="#FF8B66"/>
<path d="M671.684 531.474C690.623 500.744 734.266 546.182 749.129 578.638C763.992 611.093 774.82 617.995 774.82 617.995C774.82 617.995 731.178 636.195 731.507 668.815C731.507 668.815 630.388 598.604 671.684 531.515V531.474Z" fill="#ADBEC4"/>
<path d="M803.724 626.13C803.724 626.13 830.28 600.124 917.688 566.148L906.407 530.735C916.412 517.588 934.857 517.588 934.857 517.588C934.857 517.588 979.612 580.651 971.912 599.508C967.095 611.257 873.716 623.624 803.724 626.13Z" fill="#EF6E4B"/>
<path d="M899.449 574.652C899.449 574.652 900.149 570.914 903.361 566.395C906.572 561.834 905.707 553.577 906.86 550.988C908.013 548.441 914.889 537.924 919.459 535.911C924.029 533.857 929.999 530.529 931.275 536.322C932.552 542.115 923.123 540.471 918.883 548.77C918.883 548.77 928.146 545.771 935.516 547.496C942.886 549.222 944.945 555.96 935.887 555.713C928.64 555.549 919.294 560.684 919.294 560.684C919.294 560.684 928.764 562.122 927.24 566.436C925.141 572.434 913.613 568.736 899.49 574.611L899.449 574.652Z" fill="#FF8B66"/>
<path d="M253.209 693.424C261.032 713.39 293.023 747.572 293.023 747.572C293.023 747.572 371.168 700.819 407.235 720.498C443.301 740.177 471.957 752.173 495.343 743.586C518.729 735 418.433 553.043 418.433 553.043L288.411 503.538C288.411 503.538 285.571 536.363 270.707 542.197C255.844 548.031 239.993 602.178 241.063 612.449C242.134 622.72 253.168 693.424 253.168 693.424H253.209Z" fill="#3E6575"/>
<path d="M399.494 748.763C399.494 748.763 365.98 814.332 296.77 898.306C296.77 898.306 289.688 998.179 106.636 1155.32L87.491 1140.29C87.491 1140.29 196.474 969.913 218.295 917.656C240.117 865.398 206.232 817.536 306.527 685.413L399.494 748.722V748.763Z" fill="#EF6E4B"/>
<path d="M292.776 632.744C263.914 687.919 254.239 758.417 254.239 758.417L241.105 791.489C241.105 791.489 287.712 816.591 341.565 825.712L363.14 768.688L292.776 632.744Z" fill="#662C33"/>
<path d="M443.302 743.627C443.302 743.627 457.589 815.852 455.242 924.558C455.242 924.558 511.565 1007.42 465.082 1243.86H440.708C440.708 1243.86 420.781 1042.71 405.547 988.195C390.313 933.678 334.031 916.957 330.984 751.228L443.302 743.627Z" fill="#FF8B66"/>
<path d="M457.589 821.152C457.589 821.152 411.723 829.368 330.984 825.588L329.708 816.509L329.378 814.167L321.02 755.418C321.02 755.418 313.239 745.846 305.251 730.234C304.304 728.427 303.357 726.537 302.452 724.565C291.582 701.435 281.907 667.829 292.776 632.744L309.822 633.525L312.209 633.648L369.274 636.236L371.703 636.359L390.437 637.222L393.36 637.345L405.506 637.88C405.506 637.88 467.305 693.383 456.271 796.009L457.054 810.306L457.136 812.647L457.589 821.069V821.152Z" fill="#8B383E"/>
<path d="M312.209 633.689C310.604 638.373 299.816 673.252 305.251 730.235C304.304 728.427 303.357 726.537 302.451 724.565C298.375 672.431 307.763 639.893 309.821 633.525C310.11 632.744 310.233 632.374 310.233 632.333L312.374 633.114C312.374 633.114 312.292 633.36 312.209 633.648V633.689Z" fill="#662C33"/>
<path d="M457.136 812.688C440.914 816.838 413.369 817.988 387.225 817.988C363.757 817.988 341.524 817.043 329.666 816.468L329.337 814.126C349.841 815.112 403.9 817.249 438.732 813.428L436.508 776.7C437.044 733.85 424.074 697.286 411.558 672.02C379.814 666.268 371.086 642.81 369.233 636.195C368.945 635.127 368.821 634.511 368.821 634.47L371.044 634.1C371.044 634.1 371.209 634.963 371.621 636.318C373.679 643.179 382.161 663.557 410.199 669.39C401.759 652.916 393.73 641.659 390.354 637.181C389.366 635.825 388.707 635.045 388.666 635.004L390.395 633.525C390.395 633.525 391.548 634.881 393.277 637.304C403.9 651.684 439.679 705.708 438.773 776.576L440.996 813.099C447.09 812.36 452.524 811.456 457.012 810.265L457.094 812.606L457.136 812.688Z" fill="#662C33"/>
<path d="M340.371 385.259C322.173 375.276 191.08 426.548 191.08 426.548C191.08 426.548 171.688 461.058 183.793 474.615C195.898 488.131 238.799 482.174 251.933 474.615C265.067 467.056 299.899 461.304 299.899 461.304L340.412 385.218L340.371 385.259Z" fill="#8BBDDB"/>
<path d="M456.271 276.348C456.271 276.348 483.362 286.783 493.243 317.924C503.166 349.065 473.522 427.862 483.774 464.098C494.026 500.333 492.42 568.736 460.47 583.198C428.521 597.659 362.933 571.777 348.852 532.255C334.772 492.733 340.865 342.943 367.915 292.041C394.965 241.098 449.766 266.775 456.271 276.348Z" fill="#F24052"/>
<path d="M425.186 410.69C432.309 418.372 450.713 404.692 450.713 404.692C450.713 404.692 450.342 472.643 430.538 477.82C410.735 483.037 360.299 424.288 362.398 408.348C364.498 392.408 409.376 393.64 425.186 410.69Z" fill="#8BBDDB"/>
<path d="M348.894 393.722C348.894 393.722 368.904 410.69 403.776 418.742C438.649 426.794 457.547 410.443 475.375 432.874C502.137 466.563 458.577 528.639 435.685 560.807C427.162 572.804 409.129 606.081 405.464 637.962C405.464 637.962 344.941 655.504 292.776 632.744L288.865 558.671C288.865 558.671 255.968 458.839 348.853 393.722H348.894Z" fill="#0E3944"/>
<path d="M411.434 465.782C411.434 465.782 439.061 400.049 447.09 395.859C455.077 391.668 475.416 401.734 479.492 410.731C483.568 419.728 479.492 439.325 479.492 439.325C479.492 439.325 457.671 414.51 411.434 465.782Z" fill="#8BBDDB"/>
<path d="M543.844 743.586C531.287 769.263 500.408 776.658 500.408 776.658C500.408 776.658 498.061 773.084 494.149 766.716C493.738 766.059 493.285 765.36 492.873 764.621C468.581 725.345 394.43 599.672 395.871 534.309C397.559 456.21 448.613 413.36 448.613 413.36C474.551 419.522 482.704 426.589 482.704 426.589C482.704 426.589 491.432 471 483.445 524.49C475.457 577.898 460.923 592.031 468.211 596.057C475.498 600.042 468.211 608.012 468.211 608.012C468.211 608.012 511.236 667.829 519.265 686.44C524.493 698.559 533.345 719.183 538.863 732.042C539.233 732.946 539.604 733.85 539.974 734.671C542.321 740.094 543.803 743.627 543.803 743.627L543.844 743.586Z" fill="#6097B2"/>
<path d="M469.158 426.589C469.158 426.589 438.361 449.39 456.312 484.187L541.662 572.393C494.808 622.227 490.156 642.686 456.312 665.652L469.158 685.536C469.158 685.536 587.775 594.578 587.94 572.434C588.022 562.944 515.477 448.322 469.158 426.671V426.589Z" fill="#FF8B66"/>
<path d="M454.418 665.611C454.418 665.611 438.155 667.418 427.903 669.965C417.651 672.513 403.982 675.06 403.57 677.196C403.159 679.332 426.215 677.196 426.215 677.196C426.215 677.196 407.441 684.879 406.988 687.878C406.576 690.836 430.909 685.741 430.909 685.741C430.909 685.741 415.552 695.108 416.375 697.655C417.24 700.203 436.179 693.835 436.179 693.835C436.179 693.835 432.638 702.791 429.015 707.022C429.015 707.022 432.679 709.035 440.131 700.778C447.584 692.52 459.441 695.19 468.87 687.878C478.257 680.565 463.023 664.501 454.459 665.611H454.418Z" fill="#FF8B66"/>
<path d="M367.174 404.65C367.174 404.65 343.747 419.769 328.925 456.251C314.144 492.733 267.414 561.424 256.503 579.131C245.551 596.878 253.168 693.424 253.168 693.424C253.168 693.424 239.458 634.88 233.364 612.079C227.271 589.278 253.045 532.912 256.915 529.913C260.785 526.914 280.589 532.378 276.801 509.495C273.013 486.611 326.126 388.012 340.33 385.259C340.33 385.259 363.057 389.532 367.174 404.609V404.65Z" fill="#6097B2"/>
<path d="M294.752 409.58C294.341 410.361 293.888 411.141 293.352 411.881C288.041 419.481 278.16 425.562 278.16 425.562C278.16 425.562 260.291 450.54 260.085 453.416C259.92 455.881 229.041 478.23 215.331 477.778H215.29C213.396 477.737 211.872 477.244 210.761 476.217C202.609 468.535 238.47 404.239 246.375 390.394C246.869 389.491 247.281 388.792 247.569 388.34C247.733 387.971 247.898 387.765 247.898 387.765C247.898 387.765 241.599 364.307 267.908 368.703C289.812 372.318 294.135 389.696 296.44 401.323C296.976 404.116 296.193 406.951 294.752 409.621V409.58Z" fill="#6097B2"/>
<path d="M202.815 433.902C220.889 410.197 284.541 364.184 318.056 350.544L326.455 366.073C326.455 366.073 261.691 422.891 246.457 447.213C231.223 471.534 212.408 481.558 194.374 473.465C176.382 465.371 199.027 438.873 202.815 433.861V433.902Z" fill="#FF8B66"/>
<path d="M288.412 404.691L284.994 408.594L283.265 410.607L277.584 417.099C277.584 417.099 263.338 434.353 263.873 441.255C264.285 446.227 236.823 468.494 215.331 477.737C206.603 481.517 198.821 483.16 194.292 480.572C178.77 471.616 182.229 444.748 191.039 426.548C198.739 410.69 232.665 390.189 241.434 385.177C242.546 384.479 243.205 384.068 243.452 383.986H243.493L246.745 371.332C246.745 371.332 258.603 364.225 267.908 368.579C267.908 368.579 247.322 369.442 250.739 377.412C254.198 385.423 282.73 404.322 288.453 404.609L288.412 404.691Z" fill="#8BBDDB"/>
<path d="M363.098 338.876C342.389 347.38 345.353 366.073 326.373 366.073C314.639 366.073 313.074 352.68 313.074 352.68C318.385 341.218 321.761 321.703 322.502 312.419C323.285 303.134 326.373 306.708 326.373 306.708C326.373 305.845 326.331 305.024 326.29 304.202C326.002 297.957 324.89 293.397 328.966 296.068C333.619 299.067 335.225 316.774 335.225 316.774C339.054 290.973 333.331 287.111 337.818 289.412C343.953 292.534 343.994 315.336 343.994 315.993C348.935 300.998 347.618 292.411 351.035 295.821C354.493 299.272 349.306 326.839 347.247 336.945C346.794 339.246 346.465 340.643 346.465 340.643C362.892 332.632 363.057 338.876 363.057 338.876H363.098Z" fill="#FF8B66"/>
<path d="M347.288 336.945C346.835 339.246 346.506 340.643 346.506 340.643C346.506 340.643 338.93 339.903 333.372 348.079C333.372 348.079 334.936 337.151 347.288 336.945Z" fill="#EF6E4B"/>
<path d="M327.566 325.196C327.69 323.018 328.637 310.447 326.414 306.667C326.414 305.804 326.372 304.983 326.331 304.161C331.066 305.147 328.061 322.525 327.566 325.196Z" fill="#EF6E4B"/>
<path d="M340.412 434.025C340.412 434.025 354.411 396.187 358.858 387.724C363.304 379.261 386.484 380.74 404.065 383.986C421.604 387.272 425.186 410.69 425.186 410.69C425.186 410.69 371.786 385.547 340.412 434.025Z" fill="#8BBDDB"/>
<path d="M430.497 359.541C430.497 359.541 413.74 390.436 413.987 424.699C413.987 424.699 386.772 443.186 377.014 420.015C377.014 420.015 387.349 389.696 382.367 348.818C379.032 321.416 430.497 359.541 430.497 359.541Z" fill="#EF6E4B"/>
<path d="M377.056 316.65C377.056 316.65 372.074 298.943 363.222 311.392C352.97 325.812 363.428 339.821 368.904 336.493C374.379 333.166 377.056 316.65 377.056 316.65Z" fill="#FF8B66"/>
<path d="M456.189 362.211C456.189 362.211 473.934 357.281 467.882 371.291C460.841 387.519 443.426 385.875 443.426 379.466C443.426 373.057 456.189 362.211 456.189 362.211Z" fill="#FF8B66"/>
<path d="M384.302 393.887C359.063 379.713 354.123 355.268 381.955 305.969C396.324 280.538 418.063 272.239 446.348 288.098C474.593 303.956 477.681 326.264 463.353 351.694C433.462 404.692 410.405 408.553 384.343 393.887H384.302Z" fill="#FF8B66"/>
<path d="M445.031 364.594C444.043 367.388 440.42 368.62 436.961 367.388C433.462 366.155 431.444 362.91 432.433 360.116C433.421 357.323 437.044 356.09 440.502 357.323C444.002 358.555 446.019 361.801 445.031 364.594Z" fill="#DB614D"/>
<path d="M392.372 336.822C390.766 339.287 386.937 339.657 383.849 337.644C380.761 335.631 379.567 332.015 381.173 329.509C382.778 327.044 386.607 326.675 389.695 328.688C392.783 330.701 393.977 334.316 392.372 336.822Z" fill="#DB614D"/>
<path d="M448.654 332.714C447.995 332.714 447.419 332.262 447.254 331.604C445.813 325.976 439.596 322.689 439.514 322.648C438.814 322.279 438.526 321.416 438.896 320.717C439.267 320.019 440.132 319.731 440.832 320.101C441.12 320.265 448.284 324.045 450.013 330.906C450.219 331.687 449.725 332.467 448.984 332.673C448.86 332.673 448.737 332.714 448.613 332.714H448.654Z" fill="#1A4850"/>
<path d="M414.028 308.105C413.781 308.105 413.534 308.023 413.287 307.899C413.246 307.899 407.153 304.243 401.594 305.969C400.812 306.215 400.03 305.763 399.783 305.024C399.536 304.243 399.989 303.462 400.73 303.216C407.523 301.162 414.481 305.27 414.769 305.476C415.469 305.886 415.675 306.79 415.263 307.448C414.975 307.899 414.522 308.146 414.028 308.146V308.105Z" fill="#1A4850"/>
<path d="M438.238 344.669C436.467 347.791 433.627 349.517 431.897 348.572C430.168 347.586 430.168 344.258 431.938 341.136C433.709 338.013 436.55 336.288 438.279 337.233C440.008 338.219 440.008 341.547 438.238 344.669Z" fill="#1A4850"/>
<path d="M402.871 325.73C401.1 328.852 398.259 330.577 396.53 329.633C394.801 328.647 394.801 325.319 396.571 322.197C398.342 319.074 401.183 317.349 402.912 318.294C404.641 319.28 404.641 322.607 402.871 325.73Z" fill="#1A4850"/>
<path d="M390.601 357.816C390.601 357.816 405.094 368.826 415.552 369.154C415.552 369.154 404.435 378.193 396.448 372.318C388.46 366.443 390.643 357.774 390.643 357.774L390.601 357.816Z" fill="#1A4850"/>
<path d="M430.621 338.342C430.621 338.342 437.249 331.933 439.967 334.193C442.684 336.452 441.243 344.34 441.243 344.34L447.048 344.505L442.231 342.574C442.231 342.574 443.796 334.398 440.79 332.673C436.549 330.249 430.579 338.342 430.579 338.342H430.621Z" fill="#1A4850"/>
<path d="M405.588 325.524C405.588 325.524 407.647 316.527 404.312 315.377C400.977 314.226 394.966 319.526 394.966 319.526L391.837 314.637L395.995 317.718C395.995 317.718 402.212 312.131 405.218 313.816C409.5 316.198 405.671 325.483 405.671 325.483L405.588 325.524Z" fill="#1A4850"/>
<path d="M453.018 298.656C453.018 298.656 444.002 286.125 431.485 296.068C419.01 306.01 390.848 321.95 377.014 316.691C363.18 311.433 407.317 252.56 445.648 269.815C483.98 287.07 480.521 343.19 464.588 361.02C448.654 378.85 456.189 362.252 456.189 362.252C456.189 362.252 457.259 336.945 462.57 320.142C467.882 303.38 453.018 298.656 453.018 298.656Z" fill="#F24052"/>
<path d="M410.529 352.064C409.829 352.064 409.088 351.982 408.346 351.776L409.129 348.736C411.723 349.393 412.958 348.284 413.575 347.257C414.44 345.778 414.316 343.888 413.616 343.19C413.205 342.779 412.546 342.82 411.599 343.313L410.158 340.561C413.328 338.917 415.222 340.355 415.881 341.054C417.61 342.861 417.775 346.271 416.252 348.859C415.016 350.955 412.958 352.064 410.529 352.064Z" fill="#DB614D"/>
<path d="M595.268 568.86C593.745 590.963 538.904 663.022 529.763 665.57C527.375 666.227 524.946 667.542 522.682 669.062C521.735 669.76 520.747 670.459 519.841 671.198C514.612 675.388 510.701 680.236 510.701 680.236C494.685 679.168 449.766 658.421 464.217 653.861C465.082 653.573 466.029 653.08 467.099 652.341C467.676 651.93 468.334 651.478 468.993 650.862C485.997 636.647 519.1 578.884 519.306 574.488C519.47 569.681 525.193 568.778 525.193 568.778C525.193 568.778 493.985 523.011 475.869 517.506C457.753 512.001 448.613 490.145 448.613 490.145C430.744 414.675 482.703 426.507 482.703 426.507C520.994 449.267 596.751 546.593 595.227 568.778L595.268 568.86Z" fill="#8BBDDB"/>
<path d="M522.682 669.062C521.735 669.76 520.747 670.459 519.841 671.198C495.302 669.514 474.716 657.476 467.099 652.341C467.676 651.93 468.334 651.478 468.993 650.862C477.186 656.203 498.102 668.117 522.723 669.021L522.682 669.062Z" fill="#3E6575"/>
<path d="M294.752 409.58C294.341 410.361 293.888 411.141 293.352 411.881C289.853 411.758 286.477 411.347 283.306 410.648C267.085 407.362 254.609 398.282 246.416 390.394C244.522 388.587 242.916 386.82 241.475 385.259C242.587 384.561 243.246 384.15 243.493 384.068C244.687 385.382 246.045 386.861 247.61 388.34C255.762 396.31 268.402 405.636 285.036 408.635C288.124 409.211 291.376 409.539 294.752 409.58Z" fill="#3E6575"/>
<path d="M540.015 734.671C532.481 747.407 518.523 762.772 494.149 766.757C493.738 766.1 493.285 765.402 492.873 764.662C517.865 760.924 531.74 744.737 538.904 732.042C539.274 732.946 539.645 733.85 540.015 734.671Z" fill="#3E6575"/>
<path d="M124.011 1149.69C124.011 1149.69 118.288 1155.32 112.359 1165.59C106.43 1175.9 112.936 1185.39 84.1973 1209.3C84.1973 1209.3 26.1856 1175.41 0 1131.86C0 1131.86 0.452905 1119.41 13.134 1116.5C19.9274 1114.94 38.7019 1123.69 56.6942 1127.1C59.2469 1127.55 61.7996 1127.96 64.3111 1128.17C67.4813 1128.45 70.5693 1128.49 73.5337 1128.12C76.2922 1127.84 78.8861 1127.26 81.3152 1126.23H81.3564C87.4911 1123.73 92.3082 1118.76 94.8609 1110.05C94.8609 1110.05 110.259 1118.8 99.9662 1133.63C99.9662 1133.63 118.247 1125.66 124.011 1149.73V1149.69Z" fill="#CFD8DC"/>
<path d="M84.1973 1209.3C84.1973 1209.3 26.1856 1175.41 0 1131.86C0 1131.86 9.71665 1129.81 17.7864 1144.23C25.815 1158.69 88.9321 1191.47 84.1973 1209.3Z" fill="#ADBEC4"/>
<path d="M84.4034 1140.78C79.7098 1148.21 79.7921 1134.49 73.5339 1128.04C76.2925 1127.75 78.8863 1127.18 81.3155 1126.15H81.3567C84.1564 1129.15 88.1089 1134.94 84.4034 1140.74V1140.78Z" fill="#ADBEC4"/>
<path d="M66.1639 1141.19C61.182 1145.87 59.5763 1133.63 56.6531 1127.06C59.2058 1127.51 61.7584 1127.92 64.2699 1128.12C67.1932 1132.11 69.9517 1137.61 66.1639 1141.23V1141.19Z" fill="#ADBEC4"/>
<path d="M480.892 1300.06H398.836C398.836 1300.06 395.418 1288.64 398.836 1276.11C400.318 1270.68 408.799 1265.63 416.704 1258.56C418.887 1256.59 420.986 1254.54 422.963 1252.24C424.527 1250.43 425.927 1248.42 427.121 1246.28C428.644 1243.69 429.838 1240.86 430.497 1237.73C431.815 1231.53 431.321 1224.22 427.739 1215.47C427.739 1215.47 455.653 1209.63 465.617 1224.83C465.617 1224.83 466.564 1217.81 475.457 1222.49C475.457 1222.49 474.181 1236.58 475.91 1248.42C477.639 1260.17 488.674 1263.62 480.851 1300.1L480.892 1300.06Z" fill="#CFD8DC"/>
<path d="M459.524 1250.76C458.783 1251.58 457.795 1251.99 456.765 1251.99C455.901 1251.99 455.077 1251.7 454.336 1251.17C450.095 1247.8 440.708 1242.54 427.08 1246.24C428.603 1243.65 429.797 1240.82 430.456 1237.69C435.932 1235.68 446.266 1234.49 459.03 1245.38C460.677 1246.73 460.924 1249.16 459.483 1250.76H459.524Z" fill="#ADBEC4"/>
<path d="M452.607 1264.36L452.154 1265.05C451.042 1266.74 448.86 1267.27 447.131 1266.29C441.572 1263 429.015 1256.8 416.704 1258.56C418.886 1256.59 420.986 1254.54 422.963 1252.24C429.056 1250.84 440.502 1250.06 451.824 1259.39C453.306 1260.62 453.718 1262.75 452.648 1264.36H452.607Z" fill="#ADBEC4"/>
</svg>
