<svg width="85" height="40" viewBox="0 0 85 40" fill="none" xmlns="http://www.w3.org/2000/svg">
<rect x="1" y="1" width="83" height="38" rx="17" fill="#E6E4E1" stroke="#27332D" stroke-width="2"/>
<path d="M39.9451 17.9925L42.5608 24.7503L42.8081 25.3894H43.4933H51.4155L45.1656 29.2012L44.452 29.6365L44.7537 30.4159L47.2374 36.8328L40.4658 32.7028L39.9451 32.3852L39.4244 32.7028L32.6529 36.8328L35.1366 30.4159L35.4383 29.6365L34.7247 29.2012L28.4747 25.3894H36.3969H37.0821L37.3295 24.7503L39.9451 17.9925Z" fill="#E6E4E1" stroke="#27332D" stroke-width="2"/>
<path d="M45.98 24V10H48.54V15.74H52.16V18.06H48.54V24H45.98ZM57.94 24.2C56.9 24.2 55.94 24.02 55.06 23.66C54.18 23.3 53.4133 22.8 52.76 22.16C52.1067 21.52 51.5933 20.76 51.22 19.88C50.86 19 50.68 18.04 50.68 17C50.68 15.96 50.86 15 51.22 14.12C51.5933 13.24 52.1067 12.48 52.76 11.84C53.4133 11.2 54.18 10.7 55.06 10.34C55.94 9.98 56.9 9.8 57.94 9.8C58.9667 9.8 59.92 9.98 60.8 10.34C61.6933 10.7 62.4667 11.2 63.12 11.84C63.7733 12.48 64.28 13.24 64.64 14.12C65 15 65.18 15.96 65.18 17C65.18 18.04 65 19 64.64 19.88C64.28 20.76 63.7733 21.52 63.12 22.16C62.4667 22.8 61.6933 23.3 60.8 23.66C59.92 24.02 58.9667 24.2 57.94 24.2ZM57.94 21.92C58.5933 21.92 59.2 21.8 59.76 21.56C60.3333 21.32 60.8267 20.98 61.24 20.54C61.6533 20.1 61.9733 19.5867 62.2 19C62.44 18.4 62.56 17.7333 62.56 17C62.56 16.2667 62.44 15.6067 62.2 15.02C61.9733 14.42 61.6533 13.9 61.24 13.46C60.8267 13.02 60.3333 12.68 59.76 12.44C59.2 12.2 58.5933 12.08 57.94 12.08C57.2867 12.08 56.68 12.2 56.12 12.44C55.56 12.68 55.0667 13.02 54.64 13.46C54.2267 13.9 53.9 14.42 53.66 15.02C53.4333 15.6067 53.32 16.2667 53.32 17C53.32 17.7333 53.4333 18.4 53.66 19C53.9 19.5867 54.2267 20.1 54.64 20.54C55.0667 20.98 55.56 21.32 56.12 21.56C56.68 21.8 57.2867 21.92 57.94 21.92Z" fill="#27332D"/>
<path d="M29.4 24.2C28.3333 24.2 27.34 24.0267 26.42 23.68C25.5133 23.32 24.72 22.82 24.04 22.18C23.3733 21.5267 22.8533 20.76 22.48 19.88C22.1067 19 21.92 18.04 21.92 17C21.92 15.96 22.1067 15 22.48 14.12C22.8533 13.24 23.38 12.48 24.06 11.84C24.74 11.1867 25.5333 10.6867 26.44 10.34C27.3467 9.98 28.34 9.8 29.42 9.8C30.5667 9.8 31.6133 10 32.56 10.4C33.5067 10.7867 34.3067 11.3667 34.96 12.14L33.28 13.72C32.7733 13.1733 32.2067 12.7667 31.58 12.5C30.9533 12.22 30.2733 12.08 29.54 12.08C28.8067 12.08 28.1333 12.2 27.52 12.44C26.92 12.68 26.3933 13.02 25.94 13.46C25.5 13.9 25.1533 14.42 24.9 15.02C24.66 15.62 24.54 16.28 24.54 17C24.54 17.72 24.66 18.38 24.9 18.98C25.1533 19.58 25.5 20.1 25.94 20.54C26.3933 20.98 26.92 21.32 27.52 21.56C28.1333 21.8 28.8067 21.92 29.54 21.92C30.2733 21.92 30.9533 21.7867 31.58 21.52C32.2067 21.24 32.7733 20.82 33.28 20.26L34.96 21.86C34.3067 22.62 33.5067 23.2 32.56 23.6C31.6133 24 30.56 24.2 29.4 24.2Z" fill="#27332D"/>
</svg>
