<svg width="50" height="50" viewBox="0 0 50 50" fill="none" xmlns="http://www.w3.org/2000/svg">
<path d="M5.95238 0C2.67915 0 0 2.67915 0 5.95238V44.0476C0 47.3209 2.67915 50 5.95238 50H44.0476C47.3209 50 50 47.3209 50 44.0476V5.95238C50 2.67915 47.3209 0 44.0476 0H5.95238ZM5.95238 2.38095H44.0476C46.0339 2.38095 47.619 3.96609 47.619 5.95238V44.0476C47.619 46.0339 46.0339 47.619 44.0476 47.619H5.95238C3.96609 47.619 2.38095 46.0339 2.38095 44.0476V5.95238C2.38095 3.96609 3.96609 2.38095 5.95238 2.38095ZM23.0911 14.2764C21.8321 14.2735 20.7096 14.3439 19.7056 14.8368L19.7033 14.8391C19.2139 15.0802 18.8689 15.3865 18.5942 15.7506C18.4569 15.9326 18.3162 16.096 18.2408 16.5109C18.2031 16.7183 18.1819 17.0545 18.3989 17.4177C18.6159 17.7808 19.0522 17.9873 19.3313 18.0246C19.5252 18.0504 19.9629 18.2367 20.0033 18.2919L20.0056 18.2966C20.0056 18.2966 20.1753 18.7395 20.2241 19.1336C20.273 19.5278 20.2706 19.8475 20.2706 19.8475C20.2701 19.8793 20.2709 19.9111 20.273 19.9428C20.273 19.9428 20.3419 20.9756 20.2962 22.0424C20.278 22.4676 20.223 22.8459 20.166 23.1841C19.7421 22.716 19.1174 21.8684 18.2152 20.3055C17.2144 18.5708 16.4179 17.0154 16.4179 17.0154C16.376 16.8799 16.2281 16.4584 15.6506 16.0342C15.0192 15.5689 14.4089 15.4994 14.4089 15.4994C14.3324 15.4841 14.2545 15.4763 14.1764 15.4762L9.48428 15.4785C9.48428 15.4785 9.20295 15.4622 8.86579 15.5087C8.52863 15.5552 8.02094 15.5931 7.53116 16.1737L7.52883 16.1761C7.09111 16.6991 7.11759 17.2772 7.17076 17.6037C7.22393 17.9302 7.34282 18.178 7.34282 18.178C7.34511 18.1827 7.34744 18.1873 7.3498 18.192C7.3498 18.192 11.1878 26.2613 15.525 31.0128C18.6746 34.4629 21.9074 34.5215 24.5745 34.5215H26.5648C27.073 34.5215 27.5326 34.5016 28.0413 34.2053C28.55 33.9089 28.8923 33.1874 28.8923 32.6869C28.8923 32.1625 28.9706 31.7502 29.0667 31.5383C29.1343 31.3893 29.1878 31.3356 29.2713 31.2919C29.289 31.3031 29.2776 31.2965 29.3271 31.3314C29.5253 31.4707 29.8525 31.7884 30.2083 32.1847C30.9199 32.9773 31.7277 34.0643 32.8125 34.8098C33.5897 35.3443 34.3238 35.5817 34.8819 35.6678C35.2316 35.7217 35.5031 35.7113 35.6957 35.6957L40.1414 35.7143C40.1677 35.7144 40.1941 35.7136 40.2204 35.712C40.2204 35.712 40.9864 35.7209 41.7829 35.2446C42.1812 35.0064 42.6509 34.5549 42.8037 33.896C42.9565 33.2371 42.7644 32.5545 42.3898 31.9313V31.9289C42.4548 32.0368 42.3309 31.8152 42.2038 31.6081C42.0767 31.401 41.8921 31.1219 41.6271 30.7757C41.0972 30.0832 40.2484 29.1142 38.8765 27.8367H38.8742C38.1773 27.1884 37.7068 26.7293 37.514 26.4741C37.3211 26.2189 37.3843 26.353 37.3977 26.2881C37.4244 26.1584 38.2607 24.952 39.9623 22.6795C40.9967 21.2963 41.7227 20.2578 42.2015 19.3941C42.6802 18.5303 43.0255 17.7823 42.7851 16.8666L42.7827 16.862C42.676 16.4601 42.3845 16.0896 42.0852 15.8877C41.7859 15.6859 41.5021 15.607 41.2481 15.5576C40.7403 15.4588 40.2971 15.4762 39.8856 15.4762C39.0228 15.4762 35.1946 15.5064 34.8796 15.5064C34.5073 15.5064 33.8916 15.6758 33.6193 15.8389C32.9347 16.2509 32.7381 16.7922 32.7381 16.7922C32.7257 16.8151 32.7141 16.8384 32.7032 16.862C32.7032 16.862 31.9135 18.6131 30.8966 20.3427C29.8664 22.0972 29.1053 22.9339 28.6458 23.3212C28.6332 23.2524 28.6354 23.3083 28.6272 23.212C28.5861 22.722 28.6319 22.045 28.6319 21.3844C28.6319 19.6052 28.7827 18.36 28.7016 17.2596C28.6611 16.7094 28.5592 16.142 28.1971 15.6203C27.835 15.0987 27.2324 14.7598 26.6369 14.6159C26.2796 14.5297 25.8723 14.3055 24.3978 14.2904H24.3955C23.9445 14.2859 23.5107 14.2774 23.0911 14.2764ZM24.3722 16.6713C25.6769 16.6847 25.3519 16.7565 26.0765 16.9317C26.3013 16.986 26.2468 16.9857 26.2416 16.9782C26.2364 16.9707 26.3024 17.0935 26.3277 17.4363C26.3782 18.1219 26.2509 19.485 26.2509 21.3844C26.2509 21.9023 26.1884 22.6414 26.2533 23.4119C26.318 24.1824 26.5091 25.1712 27.4298 25.7673C27.8662 26.0502 28.3729 26.068 28.8063 25.9603C29.2396 25.8525 29.6328 25.6282 30.0456 25.2976C30.8712 24.6365 31.7921 23.5208 32.9497 21.5495C34.0316 19.7094 34.8186 17.9571 34.8447 17.899C34.8498 17.8949 34.855 17.8921 34.861 17.8874C34.8758 17.8875 34.8604 17.8874 34.8796 17.8874C35.324 17.8874 39.0817 17.8571 39.8856 17.8571C40.0733 17.8571 40.1416 17.8685 40.2902 17.8734C40.2498 18.0083 40.2947 17.9223 40.1181 18.2408C39.7478 18.9089 39.0654 19.9017 38.0557 21.2519C36.3966 23.4675 35.3683 24.3357 35.0656 25.8068C34.9142 26.5424 35.1979 27.3577 35.6143 27.9088C36.0307 28.4598 36.5563 28.9318 37.2535 29.5805C38.5447 30.7828 39.3021 31.6563 39.7368 32.2242C39.9541 32.5082 40.0911 32.7133 40.1762 32.852C40.2614 32.9907 40.2403 32.9761 40.3506 33.1589C40.4232 33.2806 40.3965 33.2064 40.4088 33.2427C40.266 33.2829 40.0931 33.3313 40.0832 33.3333L35.705 33.3147C35.6261 33.3147 35.5475 33.3225 35.4701 33.338C35.4701 33.338 35.4811 33.3509 35.2469 33.3147C35.0127 33.2786 34.6402 33.1773 34.1611 32.8474C33.5828 32.45 32.7732 31.4777 31.9801 30.5943C31.5835 30.1526 31.188 29.7285 30.6966 29.3829C30.2052 29.0373 29.4699 28.7124 28.6761 28.9621C27.852 29.2208 27.2105 29.8639 26.8973 30.5548C26.6642 31.069 26.6453 31.6062 26.609 32.1405C26.5695 32.1435 26.615 32.1405 26.5648 32.1405H24.5745C21.8701 32.1405 19.9499 32.3276 17.2828 29.4062C13.6953 25.476 10.4085 18.9369 9.87258 17.8595L14.002 17.8571C14.0746 17.885 14.23 17.9433 14.2392 17.9501L14.2439 17.9548C14.0929 17.8445 14.2508 17.999 14.2508 17.999C14.2654 18.0346 14.2817 18.0695 14.2997 18.1036C14.2997 18.1036 15.1179 19.7022 16.1528 21.496C17.1679 23.2546 17.9077 24.3531 18.6221 25.0791C18.9793 25.442 19.3399 25.7331 19.8219 25.8975C20.3039 26.0619 20.9262 26.0016 21.3449 25.7719C22.2001 25.3038 22.315 24.6132 22.454 24.0095C22.5931 23.4049 22.6484 22.7609 22.6749 22.1447C22.7261 20.9488 22.6536 19.9137 22.6493 19.8498C22.6495 19.8274 22.655 19.3958 22.5865 18.843C22.5164 18.277 22.4382 17.585 21.9262 16.8876L21.9238 16.8852C21.9203 16.8804 21.9158 16.8807 21.9122 16.8759C22.5893 16.7788 23.1686 16.6593 24.3722 16.6713ZM34.8749 17.8385L34.8586 17.8757C34.8561 17.8772 34.8569 17.874 34.854 17.8757C34.859 17.8661 34.8749 17.8385 34.8749 17.8385Z" fill="#E6E4E1"/>
</svg>
